<?xml version="1.0" encoding="utf-8"?>
<!-- Generator: Adobe Illustrator 27.5.0, SVG Export Plug-In . SVG Version: 6.00 Build 0)  -->
<svg version="1.1" xmlns="http://www.w3.org/2000/svg" xmlns:xlink="http://www.w3.org/1999/xlink" x="0px" y="0px"
	 viewBox="0 0 750 500" style="enable-background:new 0 0 750 500;" xml:space="preserve">
<g id="BACKGROUND">
	<rect style="fill:#FFFFFF;" width="750" height="500"/>
</g>
<g id="OBJECTS">
	<g>
		<g>
			<path style="fill:#61B3D9;" d="M263.5,288c0,0,41-14.75,55,8s-5.25,55-15,70s-32.25,34.5-92,18.25s-85.75-108.75-85.5-173
				S130,66.75,179,52s55.5,58.25,55.5,58.25s34.167-24.917,51.167,13.417S304.667,214.666,263.5,288z"/>
			<g>
				<path style="fill:#B6EBF3;" d="M205.5,336c0,0-9.25,4.125-6.75,11.375s13.875,8.375,22.625,8.375s46,0.375,48.375-19.25
					s-27.5-12.625-27.5-12.625S217.875,329.25,205.5,336z"/>
				<path style="fill:#B6EBF3;" d="M189.125,299.5c0,0-11.25,4.875-4.875,13.625s23,1.375,23,1.375s16.625-4.875,15.5-13.375
					S209.125,290.5,189.125,299.5z"/>
				<path style="fill:#B6EBF3;" d="M150.5,272.375c0,0,10.875,14.75,47.25-28.75s45.875-67.75,45.875-67.75
					s7.25-16.625,7.875-29.375s0.125-36.875-18.75-33.25s-39.375,36.375-39.375,36.375s-31.5,51.5-39,70S139,261.125,150.5,272.375z
					"/>
				<path style="fill:#B6EBF3;" d="M143.75,176c0,0,7.375,5.75,22.25-20.25s33.125-70.375,15.5-75.875s-35.25,42.375-35.25,42.375
					S130.25,168,143.75,176z"/>
			</g>
		</g>
		<g>
			<path style="stroke:#000000;stroke-miterlimit:10;" d="M119.833,269.5c0,0-6.833-0.833-9.333,6.834
				c-2.5,7.667-4.167,23.334,6.5,25.167s11.5-18.168,10-23.834C125.5,272.001,123.167,270.333,119.833,269.5z"/>
			<path style="stroke:#000000;stroke-miterlimit:10;" d="M120,290.667c0,0,28.667,81.333,90.333,93.333c0,0-47-24.667-86.5-99
				L120,290.667z"/>
		</g>
		<g>
			<g>
				<path d="M200.993,379.963c4.074,2.507,8.836,3.707,13.51,4.639c4.716,0.881,9.52,1.229,14.314,1.303l3.599,0.004l3.597-0.155
					c2.399-0.052,4.787-0.371,7.179-0.538c2.389-0.23,4.768-0.573,7.15-0.854l3.544-0.601c1.148-0.268,2.3-0.491,3.444-0.793
					c4.59-1.195,9.028-2.929,13.159-5.207c4.106-2.32,7.923-5.145,11.26-8.467c6.677-6.625,11.696-14.938,14.569-23.88
					c0.36-1.115,0.677-2.242,0.94-3.366c0.07-0.281,0.128-0.56,0.185-0.839l0.081-0.402l0.079-0.446
					c0.109-0.597,0.215-1.192,0.287-1.753c0.33-2.282,0.509-4.63,0.489-6.932c-0.047-2.306-0.318-4.586-0.852-6.777
					c-0.525-2.199-1.458-4.239-2.628-6.093c-1.159-1.883-2.816-3.36-4.554-4.695c-1.864-1.194-3.841-2.213-6.045-2.872
					c-0.569-0.175-1.163-0.398-1.71-0.532l-1.616-0.36c-0.528-0.142-1.09-0.216-1.656-0.283c-0.564-0.065-1.122-0.169-1.689-0.213
					c-2.269-0.168-4.577-0.098-6.924,0.113c-4.699,0.459-9.577,1.205-14.496,1.417c-4.923,0.227-9.859-0.002-14.736-0.524
					c-4.884-0.491-9.705-1.551-14.387-2.314c-4.691-0.757-9.461-1.204-14.221-1.346c-4.762-0.129-9.538,0.065-14.232,0.731
					c-2.343,0.342-4.664,0.813-6.908,1.479c-2.224,0.676-4.426,1.558-6.168,2.863c-0.86,0.647-1.575,1.447-1.804,2.285
					c-0.244,0.824-0.019,1.715,0.563,2.563c0.15,0.208,0.275,0.429,0.477,0.618l0.5,0.539c0.468,0.37,0.953,0.807,1.382,0.996
					c0.846,0.534,1.994,0.898,3.068,1.192c2.223,0.537,4.597,0.623,6.945,0.478c2.354-0.148,4.707-0.521,7.025-1.058
					c4.634-1.106,9.139-2.79,13.465-4.844c4.319-2.078,8.438-4.57,12.365-7.327c3.921-2.769,7.66-5.804,11.156-9.102
					c3.487-3.308,6.749-6.848,9.805-10.555c1.55-1.837,2.979-3.771,4.431-5.685c1.376-1.97,2.792-3.912,4.069-5.949
					c1.341-1.995,2.534-4.084,3.776-6.141l3.423-6.364c0.549-1.072,1.172-2.119,1.661-3.214l1.515-3.266
					c0.986-2.189,2.085-4.319,2.932-6.575l2.684-6.691l2.37-6.808c2.98-9.135,5.234-18.498,6.729-27.971
					c0.419-2.361,0.643-4.751,0.975-7.123c0.135-1.19,0.231-2.384,0.348-3.575c0.118-1.192,0.228-2.383,0.288-3.579
					c0.335-4.753,0.482-9.601,0.221-14.252l-0.005-0.088l0.002-0.086c0.165-7.48,0.029-15.034-0.298-22.54
					c-0.35-7.512-0.884-15.013-1.74-22.467c-0.86-7.451-2.025-14.864-3.751-22.112c-1.755-7.213-3.994-14.386-7.612-20.651
					c-1.812-3.104-4.015-5.957-6.712-8.024c-0.673-0.515-1.378-0.971-2.107-1.372c-0.374-0.179-0.73-0.399-1.114-0.548l-0.572-0.234
					l-0.286-0.118c0.03,0.008-0.169-0.06,0.05,0.01l-0.085-0.025l-0.17-0.05c-0.893-0.245-1.843-0.574-2.69-0.751
					c-0.819-0.104-1.592-0.29-2.441-0.359c-3.441-0.321-6.98,0.146-10.407,1.137c-3.434,0.987-6.768,2.479-9.957,4.264
					c-6.391,3.576-12.258,8.188-17.78,13.164c-5.506,5.008-10.667,10.439-15.482,16.148c-2.432,2.858-4.674,5.763-6.844,8.831
					c-2.169,3.062-4.335,6.136-6.429,9.26c-4.211,6.233-8.253,12.585-12.163,19.016c-3.868,6.457-7.626,12.981-11.17,19.621
					c-1.788,3.312-3.48,6.673-5.195,10.023l-2.466,5.077c-0.831,1.689-1.647,3.384-2.417,5.1l-2.355,5.13
					c-0.792,1.707-1.485,3.456-2.232,5.182c-0.726,1.73-1.49,3.469-2.184,5.192l-2.08,5.273l-8.317,21.091l-8.395,21.061
					c-1.432,3.5-2.753,7.034-4.068,10.572l-4.012,10.597l-0.379-0.127l3.606-10.755c1.207-3.586,2.42-7.171,3.739-10.71
					l7.753-21.305l7.831-21.275l1.957-5.319c0.676-1.797,1.395-3.535,2.09-5.306c0.713-1.757,1.373-3.539,2.131-5.278l2.255-5.226
					l1.132-2.611l1.204-2.578l2.415-5.153c1.682-3.4,3.34-6.814,5.095-10.176c3.479-6.743,7.173-13.371,10.98-19.933
					c3.85-6.537,7.833-12.996,11.995-19.346c2.066-3.184,4.208-6.32,6.396-9.432c2.173-3.117,4.531-6.215,6.98-9.127
					c4.89-5.874,10.125-11.457,15.767-16.655c5.645-5.187,11.771-9.939,18.574-13.759c3.403-1.898,7.013-3.521,10.846-4.622
					c3.821-1.097,7.903-1.67,11.998-1.263c1.031,0.092,2.108,0.336,3.155,0.514c0.995,0.226,1.835,0.531,2.759,0.793l0.17,0.051
					l0.085,0.025c0.273,0.093,0.129,0.048,0.213,0.078l0.369,0.153l0.737,0.309c0.494,0.202,0.948,0.476,1.422,0.713
					c0.922,0.516,1.8,1.098,2.623,1.736c3.293,2.573,5.736,5.869,7.701,9.284c3.896,6.893,6.116,14.348,7.876,21.795
					c1.717,7.471,2.84,15.025,3.654,22.591c0.814,7.567,1.295,15.155,1.526,22.744c0.226,7.596,0.26,15.164-0.013,22.79
					l-0.003-0.174c0.205,5.003,0,9.834-0.436,14.709c-0.087,1.217-0.224,2.428-0.369,3.638c-0.145,1.21-0.268,2.423-0.431,3.63
					c-0.387,2.405-0.666,4.827-1.142,7.215c-1.71,9.586-4.218,19.01-7.387,28.195c-3.138,9.189-7.211,18.076-11.765,26.625
					l-3.504,6.368c-1.269,2.07-2.488,4.171-3.857,6.18c-1.304,2.049-2.748,4.004-4.152,5.984c-1.48,1.926-2.938,3.869-4.517,5.717
					c-6.214,7.463-13.328,14.195-21.248,19.841c-7.926,5.604-16.68,10.219-26.193,12.65c-2.382,0.579-4.808,1.009-7.27,1.228
					c-2.461,0.205-4.978,0.183-7.474-0.356c-1.253-0.321-2.455-0.639-3.684-1.361c-0.668-0.336-1.085-0.717-1.574-1.082
					c0.025,0.023-0.135-0.107-0.15-0.129l-0.088-0.09l-0.175-0.18l-0.35-0.36c-0.243-0.225-0.438-0.521-0.646-0.799
					c-0.1-0.143-0.208-0.278-0.301-0.428l-0.246-0.487c-0.079-0.165-0.166-0.324-0.233-0.496l-0.152-0.551
					c-0.214-0.73-0.172-1.555,0.011-2.303c0.413-1.521,1.443-2.597,2.464-3.42c2.101-1.642,4.46-2.605,6.821-3.392
					c2.374-0.763,4.789-1.31,7.218-1.717c4.86-0.799,9.769-1.103,14.665-1.077c4.901,0.039,9.781,0.389,14.646,1.064
					c1.231,0.16,2.43,0.35,3.615,0.549l3.568,0.56c1.18,0.172,2.353,0.399,3.536,0.535l3.547,0.404
					c4.733,0.45,9.478,0.61,14.208,0.341c4.741-0.215,9.432-0.946,14.345-1.441c2.464-0.229,4.997-0.319,7.55-0.134
					c0.636,0.05,1.271,0.156,1.906,0.236c0.634,0.08,1.268,0.17,1.91,0.34l1.916,0.45c0.623,0.162,1.161,0.371,1.745,0.555
					c2.426,0.742,4.79,1.94,6.969,3.379c0.529,0.387,1.026,0.825,1.538,1.238l0.76,0.631c0.237,0.229,0.454,0.48,0.681,0.719
					c0.443,0.489,0.909,0.961,1.327,1.469l1.139,1.617c1.397,2.224,2.463,4.651,3.051,7.161c0.599,2.506,0.878,5.051,0.915,7.576
					c0.012,2.531-0.206,5.012-0.599,7.505c-0.092,0.637-0.205,1.229-0.32,1.819l-0.085,0.445l-0.102,0.484
					c-0.068,0.313-0.137,0.624-0.216,0.928c-0.303,1.226-0.655,2.421-1.051,3.601c-1.569,4.72-3.712,9.213-6.329,13.419
					c-2.626,4.197-5.743,8.104-9.36,11.498c-3.587,3.424-7.667,6.313-12.023,8.652c-4.381,2.299-9.05,4.006-13.834,5.145
					c-1.198,0.288-2.425,0.502-3.635,0.754l-3.614,0.534c-2.421,0.234-4.833,0.529-7.258,0.712l-3.642,0.206
					c-1.212,0.086-2.429,0.111-3.646,0.113l-3.647,0.038l-3.647-0.125c-4.857-0.233-9.713-0.746-14.469-1.798
					c-2.376-0.527-4.73-1.167-7.012-2.022c-2.271-0.875-4.526-1.828-6.536-3.259L200.993,379.963z"/>
			</g>
			<g>
				<path d="M295.502,351.901c0,0,2.286-1.327,5.93-4.085c1.814-1.383,3.966-3.118,6.272-5.27c2.29-2.163,4.774-4.698,7.17-7.708
					c1.232-1.477,2.397-3.104,3.551-4.817c0.533-0.874,1.136-1.771,1.688-2.633c0.28-0.474,0.562-0.951,0.845-1.433
					c0.263-0.471,0.517-0.944,0.797-1.412c2.127-3.856,4.238-8.069,5.952-12.644c1.714-4.567,2.927-9.54,3.261-14.667
					c0.167-2.56,0.107-5.153-0.223-7.711c-0.36-2.553-1.006-5.061-1.965-7.404c-0.983-2.331-2.272-4.507-3.929-6.295
					c-0.829-0.89-1.689-1.744-2.67-2.438c-0.258-0.182-0.527-0.427-0.768-0.568l-0.722-0.456c-0.45-0.318-1.033-0.576-1.544-0.865
					c-4.29-2.184-9.215-2.985-13.935-3.13c-2.37-0.049-4.714-0.023-7.008,0.161c-1.146,0.104-2.281,0.197-3.398,0.354
					c-1.121,0.115-2.225,0.276-3.314,0.445c-4.348,0.713-8.426,1.705-12.131,2.833c-3.717,1.102-7.045,2.391-9.966,3.614
					c-2.914,1.243-5.392,2.483-7.427,3.534c-2.031,1.059-3.584,1.982-4.638,2.622c-1.06,0.638-1.625,0.978-1.625,0.978l-0.244-0.316
					c0,0,0.495-0.444,1.422-1.276c0.94-0.818,2.361-1.972,4.241-3.36c1.89-1.371,4.257-2.957,7.117-4.537
					c2.854-1.591,6.192-3.189,9.964-4.634c3.782-1.408,7.986-2.712,12.566-3.565c2.283-0.458,4.664-0.771,7.114-0.952
					c2.449-0.185,4.975-0.229,7.541-0.039c5.104,0.371,10.513,1.392,15.405,4.156c0.6,0.381,1.198,0.685,1.795,1.146
					c0.603,0.432,1.207,0.864,1.658,1.295c1.083,0.912,2.017,1.993,2.886,3.1c1.701,2.26,2.873,4.839,3.673,7.458
					c0.811,2.623,1.241,5.318,1.387,7.99c0.188,2.67,0.138,5.326-0.044,7.942c-0.381,5.233-1.264,10.329-2.443,15.208
					c-1.196,4.875-2.787,9.517-4.893,13.671c-0.262,0.526-0.543,1.043-0.818,1.551c-0.278,0.484-0.554,0.966-0.828,1.442
					c-0.619,1.002-1.207,1.916-1.826,2.836c-1.275,1.787-2.559,3.478-3.903,5.003c-2.699,3.041-5.448,5.557-8.05,7.555
					c-0.656,0.491-1.291,0.967-1.904,1.425c-0.635,0.427-1.248,0.837-1.836,1.231c-1.194,0.762-2.293,1.451-3.33,2
					c-2.049,1.137-3.724,1.896-4.886,2.365c-1.165,0.46-1.804,0.664-1.804,0.664L295.502,351.901z"/>
			</g>
			<g>
				<path d="M299.447,325.859c0,0,0.344-0.181,0.949-0.583c0.604-0.402,1.464-1.028,2.457-1.911c0.996-0.88,2.094-2.06,3.111-3.549
					c1.002-1.497,1.925-3.309,2.497-5.424c0.645-2.103,0.803-4.496,0.754-7.067c-0.001-0.337-0.002-0.677-0.004-1.018
					c-0.012-0.33-0.055-0.633-0.081-0.954c-0.052-0.637-0.06-1.29-0.202-1.947c-0.113-0.658-0.181-1.343-0.391-1.989l-0.266-0.998
					c-0.106-0.327-0.251-0.64-0.376-0.966c-0.485-1.315-1.302-2.499-2.252-3.593c-0.545-0.471-1.024-1.049-1.671-1.413l-0.922-0.616
					c-0.327-0.177-0.669-0.327-1.007-0.486c-2.719-1.288-5.882-1.52-8.908-1.241c-1.506,0.131-3.065,0.373-4.483,0.717
					c-1.565,0.329-2.946,0.795-4.338,1.236c-2.836,0.975-5.555,2.213-8.174,3.443c-2.616,1.278-5.145,2.514-7.543,3.686
					c-2.403,1.189-4.704,2.282-6.84,3.281c-2.148,0.975-4.127,1.862-5.927,2.563c-1.785,0.725-3.384,1.274-4.714,1.677
					c-1.337,0.39-2.389,0.673-3.126,0.805c-0.729,0.142-1.118,0.218-1.118,0.218l-0.081-0.289c0,0,0.356-0.164,1.025-0.473
					c0.332-0.157,0.751-0.316,1.227-0.548c0.473-0.239,1.016-0.514,1.624-0.822c2.421-1.251,5.799-3.169,9.864-5.51
					c2.042-1.152,4.251-2.422,6.641-3.686c1.191-0.644,2.418-1.295,3.71-1.903c1.274-0.634,2.602-1.249,3.967-1.837
					c2.744-1.162,5.626-2.29,8.686-3.141c0.777-0.204,1.585-0.378,2.378-0.56c0.808-0.195,1.554-0.229,2.337-0.352l0.582-0.069
					c0.286-0.044,0.427-0.026,0.647-0.043l1.207-0.049c0.8-0.057,1.613-0.003,2.416,0.013c3.21,0.146,6.442,0.689,9.324,2.054
					c1.478,0.609,2.74,1.592,3.965,2.577c1.112,1.103,2.186,2.28,2.929,3.644c0.192,0.335,0.405,0.664,0.578,1.007l0.46,1.051
					c0.335,0.695,0.54,1.417,0.751,2.135c0.238,0.709,0.357,1.452,0.488,2.184c0.055,0.364,0.128,0.74,0.166,1.09
					c0.026,0.34,0.053,0.678,0.079,1.014c0.03,0.335,0.042,0.669,0.059,1.001l0.012,0.248l0.003,0.061l-0.001,0.121l-0.005,0.131
					l-0.022,0.521c-0.039,0.69-0.037,1.374-0.13,2.039c-0.117,0.664-0.232,1.316-0.345,1.957c-0.141,0.635-0.348,1.245-0.516,1.849
					c-0.817,2.376-2.023,4.382-3.354,5.899c-1.314,1.536-2.718,2.608-3.932,3.344c-1.214,0.743-2.241,1.173-2.948,1.43
					c-0.717,0.238-1.11,0.325-1.11,0.325L299.447,325.859z"/>
			</g>
			<g>
				<path d="M196.897,351.533c0,0-0.044,0.151-0.059,0.469c-0.019,0.314-0.02,0.791,0.098,1.399c0.19,1.22,0.912,2.966,2.433,4.734
					c1.497,1.785,3.795,3.518,6.638,5.065c0.355,0.193,0.717,0.39,1.084,0.589c0.378,0.171,0.761,0.344,1.15,0.52
					c0.385,0.135,0.776,0.272,1.172,0.412c0.406,0.127,0.839,0.235,1.263,0.355c1.729,0.442,3.606,0.688,5.566,0.911
					c3.934,0.383,8.253,0.466,12.821,0.278c2.285-0.09,4.632-0.245,7.034-0.451c2.399-0.223,4.842-0.56,7.311-1.004
					c4.918-0.886,10.023-2.287,14.536-4.966c4.645-2.528,7.351-7.626,8.192-12.695c0.366-2.547,0.195-5.176-0.8-7.409
					c-0.473-1.119-1.119-2.148-1.938-3.016c-0.83-0.86-1.805-1.565-2.854-2.148c-2.147-1.1-4.572-1.694-7.033-1.901
					c-2.464-0.212-4.955-0.076-7.388,0.213c-2.433,0.281-4.832,0.758-7.148,1.261c-1.187,0.276-2.361,0.551-3.52,0.821
					c-1.169,0.25-2.307,0.516-3.421,0.79c-4.48,1.038-8.685,2.213-12.574,3.228c-3.877,1.061-7.403,2.137-10.455,3.301
					c-3.058,1.144-5.619,2.428-7.538,3.761c-1.944,1.304-3.191,2.692-3.826,3.751c-0.148,0.27-0.28,0.511-0.394,0.717
					c-0.09,0.216-0.142,0.407-0.197,0.557C196.95,351.377,196.897,351.533,196.897,351.533z M196.605,351.467
					c0,0,0.051-0.165,0.151-0.485c0.054-0.158,0.105-0.363,0.195-0.593c0.113-0.22,0.245-0.474,0.394-0.761
					c0.641-1.124,1.904-2.56,3.788-4.034c1.893-1.46,4.357-3.018,7.323-4.529c2.966-1.504,6.394-3.062,10.231-4.482
					c3.843-1.404,8.064-2.708,12.607-3.859c2.267-0.633,4.575-1.141,6.955-1.693c2.446-0.524,4.939-1.027,7.55-1.232
					c2.598-0.233,5.279-0.309,8.005,0.003c2.713,0.318,5.508,1.02,8.04,2.475c1.242,0.766,2.403,1.697,3.378,2.82
					c0.967,1.132,1.706,2.45,2.208,3.833c0.994,2.797,0.922,5.783,0.319,8.522c-0.623,2.755-1.772,5.331-3.35,7.615
					c-0.388,0.605-0.779,1.097-1.218,1.66c-0.466,0.524-0.928,1.05-1.46,1.492c-0.496,0.485-1.062,0.872-1.597,1.3
					c-0.568,0.374-1.121,0.774-1.709,1.107c-2.323,1.391-4.78,2.443-7.237,3.386c-2.468,0.911-4.943,1.719-7.419,2.374
					c-4.95,1.3-9.852,2.18-14.554,2.505c-4.7,0.299-9.196,0.185-13.29-0.545c-2.05-0.338-3.989-0.866-5.79-1.514
					c-0.449-0.18-0.887-0.34-1.323-0.527c-0.434-0.208-0.861-0.412-1.282-0.613c-0.387-0.228-0.769-0.451-1.145-0.671
					c-0.355-0.247-0.705-0.49-1.049-0.729c-2.746-1.917-4.909-3.917-6.369-5.828c-1.436-1.929-2.168-3.724-2.351-5.008
					c-0.112-0.638-0.104-1.142-0.078-1.478c0.012-0.168,0.03-0.298,0.048-0.388C196.593,351.502,196.604,351.467,196.605,351.467z"
					/>
			</g>
			<g>
				<path d="M149.862,276.045c0,0-0.099,0.411-0.223,1.23c-0.119,0.817-0.276,2.043-0.248,3.64c0.022,0.796,0.082,1.689,0.301,2.636
					c0.212,0.942,0.581,1.957,1.284,2.829c0.706,0.865,1.808,1.479,3.092,1.605c1.272,0.145,2.701-0.098,4.166-0.325
					c1.48-0.235,3.03-0.564,4.651-0.916c1.614-0.39,3.296-0.823,5.04-1.313c3.486-0.982,7.221-2.169,11.148-3.602
					c7.856-2.855,16.477-6.733,25.363-11.8c8.863-5.08,18.048-11.365,26.398-19.496c2.093-2.021,4.136-4.154,6.074-6.424
					c1.013-1.1,1.925-2.292,2.878-3.465c0.977-1.157,1.834-2.411,2.731-3.649c0.924-1.222,1.727-2.532,2.56-3.835
					c0.864-1.286,1.606-2.65,2.365-4.017c0.373-0.683,0.783-1.366,1.129-2.053l1.072-2.138c0.687-1.413,1.352-2.86,1.994-4.329
					c5.139-11.743,8.369-24.812,9.85-38.244c1.464-13.427,1.249-27.335-1.319-40.743c-0.665-3.342-1.503-6.645-2.607-9.824
					c-1.102-3.166-2.489-6.255-4.386-8.805c-0.935-1.276-2.054-2.348-3.26-3.044c-0.613-0.317-1.239-0.535-1.873-0.636
					c-0.637-0.075-1.28-0.02-1.927,0.127c-0.321,0.115-0.647,0.18-0.964,0.345l-0.411,0.182l-0.554,0.319l-2.215,1.276
					c-0.768,0.406-1.421,0.884-2.079,1.354l-1.987,1.399c-5.295,3.939-10.184,8.521-14.789,13.205
					c-4.631,4.68-8.896,9.624-12.998,14.547c-1.01,1.245-2.016,2.485-3.017,3.72c-0.997,1.237-1.944,2.506-2.922,3.741
					c-1.966,2.462-3.782,4.999-5.627,7.474c-1.783,2.516-3.561,4.999-5.229,7.506c-0.838,1.251-1.67,2.495-2.498,3.73
					c-0.819,1.241-1.579,2.504-2.364,3.742c-1.598,2.463-2.97,4.997-4.411,7.448c-0.658,1.254-1.311,2.498-1.958,3.732l-0.485,0.924
					l-0.123,0.229l-0.106,0.213l-0.231,0.474c-0.308,0.632-0.614,1.261-0.919,1.887c-2.451,5.003-4.575,9.854-6.683,14.579
					c-4.12,9.446-7.751,18.195-10.793,26.019c-3.026,7.829-5.632,14.676-7.539,20.395c-1.961,5.7-3.347,10.232-4.21,13.34
					c-0.411,1.556-0.748,2.752-0.897,3.56c-0.159,0.811-0.24,1.229-0.24,1.229L149.862,276.045z M149.473,275.953
					c0.017-0.091,0.092-0.507,0.225-1.236c0.145-0.834,0.466-2.03,0.861-3.602c0.83-3.129,2.191-7.672,3.936-13.451
					c1.8-5.762,3.899-12.79,6.556-20.774c2.649-7.986,5.659-16.998,9.379-26.689c0.952-2.417,1.906-4.885,2.948-7.387
					c1.07-2.494,2.138-5.064,3.311-7.58c0.288-0.634,0.578-1.271,0.868-1.911l0.218-0.481l0.122-0.264l0.12-0.24l0.489-0.96
					c0.654-1.282,1.313-2.575,1.977-3.877c1.443-2.529,2.827-5.154,4.424-7.683c6.176-10.261,13.641-20.436,22.034-30.393
					c4.242-4.941,8.644-9.895,13.442-14.604c4.797-4.71,9.793-9.339,15.493-13.37l2.221-1.474c0.741-0.496,1.481-0.996,2.232-1.368
					l2.247-1.219l0.563-0.305c0.026-0.017,0.246-0.126,0.236-0.115l0.175-0.073l0.349-0.144c0.454-0.21,0.968-0.327,1.46-0.471
					c1.023-0.215,2.104-0.276,3.166-0.113c1.056,0.187,2.048,0.573,2.941,1.076c1.741,1.062,3.077,2.49,4.135,4.001
					c2.093,3.057,3.395,6.397,4.43,9.761c1.025,3.372,1.749,6.8,2.296,10.243c1.102,6.885,1.52,13.831,1.508,20.73
					c0.021,6.9-0.379,13.765-1.133,20.533c-1.538,13.526-4.424,26.722-9.068,38.926c-0.59,1.52-1.205,3.025-1.856,4.522
					c-0.33,0.732-0.659,1.463-0.986,2.192c-0.342,0.752-0.723,1.451-1.082,2.177c-0.725,1.44-1.436,2.881-2.271,4.243
					c-0.804,1.38-1.581,2.77-2.482,4.07c-0.874,1.318-1.713,2.654-2.672,3.891c-0.939,1.251-1.825,2.537-2.842,3.702
					c-1.956,2.398-4.023,4.653-6.143,6.794c-8.546,8.52-18.069,14.975-27.337,19.785c-9.277,4.837-18.276,8.157-26.337,10.656
					c-8.081,2.474-15.287,4.01-21.286,4.882c-1.511,0.184-2.941,0.396-4.346,0.199c-1.396-0.181-2.626-0.904-3.398-1.86
					c-0.767-0.97-1.142-2.055-1.356-3.042c-0.22-0.992-0.273-1.911-0.289-2.728c-0.015-1.637,0.156-2.879,0.284-3.71
					c0.134-0.83,0.24-1.258,0.24-1.258L149.473,275.953z"/>
			</g>
			<g>
				<path d="M215.925,98.991c0,0,0.006-1.102-0.421-3.133c-0.419-2.016-1.265-4.949-3.028-8.341
					c-0.932-1.667-1.992-3.495-3.405-5.307c-0.35-0.454-0.707-0.916-1.071-1.388c-0.385-0.455-0.804-0.898-1.215-1.36
					c-0.423-0.451-0.807-0.95-1.272-1.393c-0.461-0.446-0.929-0.899-1.404-1.36c-1.903-1.842-4.149-3.562-6.571-5.287
					c-2.462-1.727-5.112-3.312-8.062-4.573c-2.917-1.283-6.121-2.189-9.433-2.233c-3.311-0.086-6.685,0.769-9.841,2.445
					c-3.159,1.68-6.105,4.104-8.816,6.926c-2.72,2.821-5.184,6.062-7.479,9.511c-2.29,3.454-4.448,7.107-6.388,10.937
					c-0.481,0.959-0.963,1.922-1.447,2.887c-0.463,0.98-0.927,1.963-1.392,2.949c-0.925,1.973-1.885,3.943-2.763,5.956
					c-0.884,2.01-1.825,4.006-2.67,6.049c-0.842,2.043-1.687,4.092-2.533,6.146c-0.772,2.08-1.547,4.164-2.321,6.251
					c-0.757,2.092-1.426,4.216-2.144,6.321c-0.731,2.1-1.318,4.247-1.938,6.379c-0.609,2.134-1.267,4.25-1.759,6.409
					c-0.541,2.143-1.081,4.281-1.62,6.413c-0.467,2.148-0.933,4.291-1.396,6.424c-0.233,1.066-0.466,2.13-0.698,3.191
					c-0.192,1.07-0.383,2.138-0.574,3.203c-0.378,2.13-0.755,4.249-1.129,6.355c-0.634,4.233-1.184,8.427-1.713,12.551
					c-0.414,4.141-0.82,8.212-1.218,12.198c-0.258,4.001-0.557,7.91-0.87,11.717c-0.23,3.813-0.335,7.53-0.541,11.122
					c-0.236,3.59-0.273,7.069-0.346,10.408c-0.087,3.34-0.171,6.542-0.25,9.586c0.017,3.046-0.033,5.938-0.048,8.656
					c-0.022,2.72-0.043,5.265-0.063,7.618c0.029,2.354,0.056,4.517,0.08,6.469c0.021,3.911,0.037,6.984,0.048,9.079
					c-0.01,2.098-0.016,3.217-0.016,3.217l-0.399,0.025c0,0-0.12-1.112-0.344-3.197c-0.204-2.089-0.502-5.151-0.882-9.049
					c-0.196-1.95-0.385-4.11-0.568-6.465c-0.137-2.357-0.286-4.907-0.444-7.631c-0.151-2.725-0.346-5.626-0.482-8.687
					c-0.063-3.064-0.131-6.285-0.201-9.646c-0.186-6.725,0.046-14.02,0.29-21.732c0.223-3.854,0.475-7.814,0.778-11.857
					c0.386-4.038,0.858-8.16,1.361-12.345c0.631-4.171,1.286-8.412,2.026-12.688c0.428-2.129,0.859-4.271,1.293-6.424
					c0.218-1.076,0.438-2.154,0.657-3.234c0.266-1.071,0.533-2.145,0.8-3.221c1.953-8.649,4.901-17.192,8.099-25.575
					c3.191-8.399,6.993-16.521,10.623-24.539c1.825-4.008,3.636-7.984,5.425-11.913c1.848-3.915,3.724-7.774,5.844-11.444
					c2.109-3.673,4.435-7.176,7.122-10.343c1.319-1.601,2.778-3.078,4.307-4.458c1.558-1.353,3.243-2.55,5.017-3.579
					c3.578-1.993,7.677-3.103,11.603-2.933c3.93,0.121,7.559,1.239,10.737,2.697c3.179,1.462,5.999,3.319,8.472,5.178
					c2.505,1.884,4.741,3.861,6.659,5.9c3.87,4.052,6.457,8.289,8.017,11.971c1.55,3.705,2.092,6.834,2.287,8.947
					c0.177,2.119,0.027,3.265,0.027,3.265L215.925,98.991z"/>
			</g>
			<g>
				<path d="M203.68,111.668c0,0-0.207-0.648-0.691-1.832c-0.478-1.183-1.211-2.906-2.303-4.994
					c-1.094-2.082-2.556-4.541-4.585-7.015c-2.041-2.438-4.683-4.937-8.129-6.452c-1.704-0.771-3.587-1.337-5.604-1.489
					c-0.301-0.045-0.492-0.014-0.714-0.01c-0.218,0.009-0.436,0.011-0.656,0.005c-0.472,0.058-0.965,0.084-1.448,0.18
					c-0.97,0.2-1.95,0.482-2.916,0.915c-1.949,0.806-3.847,2.072-5.66,3.575c-1.814,1.507-3.559,3.252-5.183,5.18
					c-3.256,3.854-6.054,8.392-8.257,13.26c-2.029,4.891-3.25,10.296-4.507,15.585c-0.603,2.661-1.09,5.35-1.639,8.005
					c-0.301,1.322-0.488,2.667-0.737,3.993c-0.249,1.325-0.498,2.646-0.745,3.963c-0.549,2.621-0.874,5.26-1.309,7.845
					c-0.204,1.294-0.407,2.582-0.609,3.859c-0.179,1.28-0.298,2.56-0.449,3.823c-0.266,2.509-0.609,5.06-0.913,7.388
					c-0.187,2.464-0.415,4.871-0.658,7.212c-0.116,1.171-0.231,2.326-0.344,3.464c-0.064,1.124-0.127,2.23-0.19,3.319
					c-0.139,2.18-0.273,4.287-0.402,6.309c-0.1,4.065-0.303,7.806-0.243,11.117c0.024,1.655-0.045,3.215,0.028,4.646
					c0.046,1.434,0.092,2.753,0.105,3.949c0.121,2.378,0.212,4.262,0.346,5.532c0.087,1.283,0.176,1.956,0.176,1.956l-0.39,0.089
					c0,0-0.215-0.663-0.535-1.915c-0.345-1.253-0.7-3.111-1.183-5.485c-0.39-2.381-0.887-5.284-1.169-8.638
					c-0.422-3.351-0.5-7.145-0.704-11.294c-0.009-2.078,0.032-4.248,0.048-6.497c0.02-1.124,0.041-2.267,0.062-3.428
					c0.079-1.141,0.158-2.298,0.239-3.473c0.151-2.349,0.329-4.76,0.557-7.22c0.339-2.572,0.66-5.026,1.065-7.607
					c0.201-1.279,0.371-2.574,0.601-3.868c0.253-1.29,0.507-2.589,0.763-3.896c0.256-1.306,0.514-2.621,0.773-3.941l0.393-1.984
					l0.477-1.976c0.648-2.637,1.274-5.3,2.032-7.939c0.814-2.626,1.572-5.272,2.44-7.887c0.872-2.613,1.699-5.234,2.655-7.805
					c0.436-1.297,0.877-2.59,1.358-3.872l0.685-1.923l0.176-0.476l0.213-0.498l0.421-0.933c2.278-4.934,4.776-9.661,7.667-14.037
					c1.451-2.182,3.054-4.244,4.869-6.092c0.904-0.925,1.886-1.775,2.905-2.569c1.059-0.747,2.143-1.459,3.325-2.01
					c2.363-1.093,4.931-1.72,7.584-1.438c2.396,0.253,4.659,0.991,6.663,1.967c4.015,2.028,6.84,5.057,8.793,7.916
					c1.984,2.871,3.178,5.642,4.009,7.938c0.831,2.303,1.261,4.171,1.519,5.446c0.239,1.28,0.313,1.974,0.313,1.974L203.68,111.668z
					"/>
			</g>
		</g>
		<g>
			<g>
				<g>
					<path d="M119.321,272.102c-1.766-12.706-4.517-25.384-8.121-37.689c-2.523-8.613-5.556-17.34-10.264-25.028
						c-4.606-7.523-13.434-15.802-22.969-13.566c-6.9,1.619-10.556,9.285-11.276,15.72c-0.902,8.052,0.572,17.939,6.025,24.253
						c3.466,4.014,11.26,6.01,13.861,0.012c2.608-6.015-1.655-13.517-7.195-16.1c-1.742-0.812-3.266,1.774-1.514,2.591
						c4.102,1.912,6.7,6.179,6.382,10.721c-0.336,4.802-5.645,3.989-8.354,1.707c-4.201-3.538-5.582-9.885-6.151-15.062
						c-0.61-5.553-0.248-11.228,2.745-16.081c6.645-10.775,19.324-2.084,24.588,5.386c5.141,7.295,8.138,16.114,10.728,24.572
						c3.92,12.802,6.777,26.094,8.622,39.36C116.694,274.808,119.584,273.992,119.321,272.102L119.321,272.102z"/>
				</g>
			</g>
			<g>
				<g>
					<path d="M113.045,275.618c-8.335-11.641-22.751-19.527-37.039-19.732c-8.975-0.128-20.074,2.578-24.705,11.069
						c-3.459,6.343-1.68,14.161,2.211,19.853c3.292,4.815,8.152,8.111,13.777,9.577c5.889,1.535,12.262-0.48,14.58-6.449
						c2.065-5.318,0.635-11.629-4.335-14.74c-2.826-1.769-11.982-3.56-12.534,1.679c-0.203,1.923,2.799,1.903,3,0
						c-0.052,0.498,0.439-0.048,1.052-0.217c0.814-0.225,1.675-0.214,2.511-0.185c2.335,0.08,4.583,1.071,6.212,2.728
						c2.674,2.721,2.479,7.584,0.796,10.729c-4.669,8.728-17.173,1.841-21.645-3.538c-4.572-5.5-6.236-13.667-1.889-19.749
						c2.747-3.843,7.601-5.716,12.009-6.775c5.812-1.396,11.945-1.271,17.743,0.097c9.837,2.319,20.021,9.283,25.666,17.166
						C111.57,278.69,114.174,277.194,113.045,275.618L113.045,275.618z"/>
				</g>
			</g>
			<circle style="stroke:#000000;stroke-miterlimit:10;" cx="78.625" cy="221" r="3.563"/>
			<circle style="stroke:#000000;stroke-miterlimit:10;" cx="66.625" cy="278.375" r="3.563"/>
		</g>
		<g>
			<defs>
				<rect id="SVGID_1_" width="750" height="500"/>
			</defs>
			<clipPath id="SVGID_00000110467230310002069240000005139714219856489352_">
				<use xlink:href="#SVGID_1_"  style="overflow:visible;"/>
			</clipPath>
			<g style="clip-path:url(#SVGID_00000110467230310002069240000005139714219856489352_);">
				<g>
					<path d="M198.586,380.748c5.545,4.316,12.175,7.425,18.531,10.305c19.572,8.867,40.536,14.544,61.551,18.759
						c31.014,6.221,62.405,9.128,93.999,6.854c28.902-2.079,57.823-7.726,85.098-17.592c11.19-4.047,22.158-8.899,32.394-14.99
						c7.934-4.722,15.648-10.355,21.574-17.5c5.876-7.085,12.58-20.998,0.607-25.908c-10.453-4.286-24.051,0.979-33.232,6.037
						c-13.387,7.374-24.284,19.551-28.412,34.425c-4.629,16.677-0.324,37.838,11.631,50.591
						c11.248,11.999,28.76,13.234,44.146,11.625c41.313-4.321,79.358-25.072,120.942-27.853
						c19.191-1.283,41.357,3.917,53.525,20.034c9.213,12.203,8.653,29.702-1.802,40.993c-4.444,4.8-10.556,7.855-17.155,7.78
						c-7.115-0.081-17.575-4.265-18.088-12.471c-0.571-9.115,9.04-16.724,15.875-20.948c5.384-3.328,11.315-5.657,17.422-7.267
						c7.385-1.946,15.027-2.229,22.608-2.759c13.506-0.943,27.275-1.408,40.537-4.348c9.326-2.068,18.01-6.088,23.89-13.839
						c1.561-2.057-1.916-4.046-3.453-2.02c-5.779,7.618-14.977,10.733-24.015,12.528c-13.39,2.66-27.267,2.983-40.848,3.952
						c-13.557,0.968-26.344,3.186-38.161,10.297c-7.619,4.586-15.777,11.751-17.574,20.904c-1.753,8.928,4.854,15.024,12.509,18.038
						c6.898,2.716,14.275,2.46,20.942-0.757c13.144-6.343,19.43-22.185,17.5-36.079c-2.769-19.92-22.52-32.218-40.571-36.505
						c-18.44-4.379-38.331-0.317-56.358,4.104c-20.962,5.142-41.402,12.179-62.343,17.4c-16.705,4.165-35.814,8.418-52.733,3.037
						c-17.028-5.415-25.022-23.215-26.097-39.972c-1.059-16.525,6.787-31.463,19.469-41.695
						c9.251-7.465,22.422-13.709,34.607-12.454c3.606,0.371,6.952,1.946,7.836,5.051c1.347,4.734-2.555,10.807-5.442,14.513
						c-5.697,7.315-13.48,12.871-21.354,17.609c-10.364,6.237-21.557,11.051-32.925,15.122c-27.642,9.9-56.993,15.307-86.253,17.165
						c-31.715,2.015-63.309-1.44-94.338-8.016c-19.958-4.229-39.925-9.904-58.412-18.657c-3.924-1.857-7.781-3.877-11.481-6.15
						c-0.924-0.567-1.836-1.156-2.729-1.772c-0.231-0.16-1.509-1.12-0.586-0.401C199.405,376.356,196.552,379.165,198.586,380.748
						L198.586,380.748z"/>
				</g>
			</g>
		</g>
	</g>
	<g>
		<g>
			<path style="fill:#D96191;" d="M541.834,112.334c0,0-5.5-63.667-39.667-74.667s-50.833,70.5-19.5,89.833
				c0,0-26.499,7.501-27.333,24.834c-0.834,17.333,17,45.666,54.333,19.833l9-9.167c0,0,0.333,16.667,14.833,32.334
				s31.333,10.166,36-4.834s-1.333-35.666-3.333-40.166c0,0,44.335-17.5,42.668-38.334c-1.667-20.833-24.167-28.166-67.667,11.5
				L541.834,112.334z"/>
			<g>
				<path style="fill:#F3B6D9;" d="M497,60.084c0,0-6.417,1-8.25,8.333s-1.084,25.666,5.583,35.583
					c6.667,9.917,11.25,17.334,17.25,16.834s8.584-5.75,2.667-24.75S509.25,58.584,497,60.084z"/>
				<path style="fill:#F3B6D9;" d="M492.25,124.417c0,0-0.583,3.417,7.5,5.25c8.083,1.833,9.833-1.833,9.75-3.583
					s-1.917-4.833-9.417-4.917C492.583,121.084,492.25,124.417,492.25,124.417z"/>
				<path style="fill:#F3B6D9;" d="M462.75,166.167c0,0,2.416,8.166,15.833,5.583c13.417-2.583,28.834-14.249,24.917-23.833
					s-25.417-0.5-25.417-0.5S458.333,153.751,462.75,166.167z"/>
				<path style="fill:#F3B6D9;" d="M547.165,148.084c0,0-7.166-0.083-7.083,14.333c0.083,14.417,4.082,20.416,9.416,20.583
					c5.334,0.167,7.251-8.999,6.084-18.583C554.415,154.834,553.582,148.167,547.165,148.084z"/>
				<path style="fill:#F3B6D9;" d="M545.875,138.125c0,0-0.25,2.75,3.75,3.5s8.875,0.5,8-2.625s-4.75-4-6.125-4
					S546,135.75,545.875,138.125z"/>
				<path style="fill:#F3B6D9;" d="M558.375,131c0,0,4.125,6.375,19.875-3.5s10.375-17.125,6.5-18.25s-13,2.875-19.875,8.625
					S556,127.5,558.375,131z"/>
			</g>
		</g>
		<path style="stroke:#000000;stroke-width:1.0775;stroke-miterlimit:10;" d="M547.111,102.26c0,0-5.791-1.616-9.158,5.926
			c-3.367,7.542,2.02,11.448,3.905,12.122c1.886,0.673,6.195,1.077,9.024-5.522C553.711,108.187,551.018,103.607,547.111,102.26z"/>
		<path d="M539.667,114c0,0,0.708,4.375-18.292,27.375s-19.833,30.709-20.708,38.959c0,0,11.666,2.999,29-31.167
			s15.334-31.667,15.334-31.667L539.667,114z"/>
		<g>
			<g>
				<path d="M548.97,107.401c0.001,0,2.95-3.755,8.562-9.947c2.81-3.091,6.296-6.785,10.504-10.823
					c4.211-4.033,9.101-8.468,15.02-12.672c2.979-2.068,6.229-4.088,10.044-5.52c1.922-0.659,4.047-1.196,6.386-0.886l0.874,0.14
					c-0.027-0.013,0.161,0.038,0.173,0.044l0.089,0.029l0.179,0.057l0.358,0.114c0.245,0.085,0.462,0.134,0.731,0.248l0.817,0.364
					c0.569,0.227,1.01,0.567,1.514,0.857c0.464,0.338,0.928,0.695,1.343,1.097c1.669,1.62,2.818,3.71,3.432,5.873
					c0.627,2.172,0.841,4.41,0.847,6.631c-0.012,4.453-0.852,8.874-2.071,13.223c-1.236,4.349-2.906,8.629-4.964,12.786
					c-1.066,2.095-2.24,4.04-3.502,6.048c-0.662,0.965-1.309,1.944-2.001,2.893c-0.723,0.926-1.382,1.905-2.14,2.809
					c-2.946,3.684-6.247,7.138-9.877,10.251c-3.612,3.134-7.572,5.918-11.814,8.219c-4.238,2.301-8.746,4.179-13.435,5.379
					c-2.322,0.605-4.813,1.064-7.398,0.911c-1.294-0.125-2.653-0.381-3.937-1.179c-0.641-0.379-1.229-0.977-1.651-1.699
					c-0.421-0.741-0.576-1.637-0.488-2.487c0.206-1.723,1.462-3.113,2.968-3.678c1.529-0.555,3.149-0.318,4.423,0.243
					c1.279,0.573,2.373,1.379,3.253,2.294c0.482,0.435,0.842,0.938,1.266,1.406c0.384,0.488,0.728,0.994,1.092,1.491
					c1.357,2.043,2.356,4.165,3.274,6.363l0.62,1.58c0.201,0.536,0.381,1.113,0.571,1.667c0.4,1.12,0.665,2.23,0.98,3.345
					c2.269,8.963,1.726,18.225-0.86,26.255c-1.269,4.03-3.031,7.791-5.228,11.133c-2.223,3.313-4.833,6.302-8.149,8.344
					c-0.429,0.237-0.834,0.498-1.29,0.691l-0.334,0.154l-0.167,0.077l-0.083,0.038c-0.058,0.023,0.012,0.001-0.15,0.062
					l-0.623,0.211c-0.414,0.14-0.826,0.279-1.235,0.418c-0.435,0.124-0.914,0.215-1.364,0.32c-0.92,0.241-1.806,0.319-2.682,0.409
					c-0.875,0.135-1.748,0.064-2.604,0.085c-3.433-0.068-6.615-0.974-9.34-2.263c-1.396-0.59-2.596-1.445-3.78-2.194
					c-1.084-0.894-2.2-1.669-3.064-2.642c-0.451-0.463-0.904-0.907-1.325-1.359c-0.381-0.487-0.754-0.963-1.118-1.429
					c-0.771-0.899-1.32-1.882-1.869-2.792c-0.268-0.458-0.554-0.89-0.786-1.333c-0.212-0.454-0.418-0.895-0.617-1.322
					c-0.375-0.864-0.823-1.63-1.063-2.417c-0.269-0.772-0.519-1.486-0.746-2.141c-0.114-0.326-0.223-0.638-0.326-0.934
					c-0.092-0.299-0.149-0.593-0.218-0.866c-0.521-2.183-0.799-3.347-0.799-3.347l0.293-0.068c0,0,0.365,1.129,1.05,3.246
					c0.089,0.262,0.168,0.545,0.276,0.835c0.12,0.285,0.247,0.584,0.379,0.898c0.265,0.626,0.553,1.31,0.865,2.048
					c0.28,0.752,0.769,1.471,1.184,2.285c0.219,0.401,0.444,0.814,0.677,1.24c0.252,0.413,0.555,0.811,0.841,1.234
					c0.291,0.419,0.59,0.85,0.896,1.292c0.289,0.454,0.698,0.831,1.049,1.269c0.365,0.425,0.738,0.86,1.12,1.305
					c0.419,0.409,0.867,0.805,1.311,1.221c0.851,0.879,1.936,1.548,2.976,2.335c1.137,0.641,2.274,1.383,3.586,1.861
					c2.557,1.082,5.489,1.713,8.575,1.711c0.769-0.044,1.555,0.006,2.332-0.143c0.782-0.104,1.579-0.196,2.312-0.417
					c0.379-0.1,0.746-0.168,1.141-0.29c0.405-0.15,0.813-0.301,1.223-0.454l0.616-0.229c-0.11,0.044,0.007-0.007,0-0.005
					l0.065-0.033l0.131-0.066l0.264-0.131c0.356-0.158,0.693-0.394,1.041-0.597c2.745-1.789,5.107-4.588,7.062-7.711
					c1.935-3.154,3.586-6.671,4.711-10.47c1.15-3.789,1.835-7.829,2.032-11.977c0.071-2.076,0.021-4.177-0.172-6.288
					c-0.23-2.106-0.542-4.225-1.033-6.329c-0.276-1.037-0.516-2.117-0.86-3.122c-0.167-0.513-0.31-1.017-0.498-1.542l-0.595-1.59
					c-0.796-1.994-1.721-4.039-2.886-5.845c-1.16-1.784-2.622-3.458-4.304-4.233c-0.831-0.384-1.678-0.465-2.37-0.239
					c-0.675,0.25-1.196,0.83-1.293,1.464c-0.087,0.617,0.187,1.248,0.916,1.72c0.707,0.478,1.714,0.745,2.756,0.869
					c2.134,0.185,4.38-0.131,6.65-0.658c4.557-0.965,8.99-2.59,13.21-4.654c4.21-2.087,8.19-4.664,11.853-7.619
					c3.646-2.976,6.964-6.331,9.88-9.964c2.924-3.633,5.433-7.531,7.393-11.65c1.939-4.121,3.345-8.43,4.363-12.721
					c0.994-4.291,1.606-8.617,1.431-12.771c-0.092-2.07-0.401-4.092-1.009-5.939c-0.574-1.861-1.565-3.486-2.861-4.692
					c-0.324-0.302-0.689-0.553-1.039-0.817c-0.38-0.206-0.75-0.497-1.129-0.632l-0.56-0.258c-0.19-0.087-0.465-0.154-0.693-0.231
					l-0.358-0.113l-0.179-0.056l-0.09-0.028c-0.047-0.016,0.08,0.023-0.009,0.003l-0.604-0.084c-1.621-0.218-3.417,0.196-5.12,0.755
					c-3.423,1.237-6.588,3.124-9.485,5.096c-5.83,3.947-10.774,8.226-15.107,12.039c-4.313,3.849-7.962,7.341-10.955,10.231
					c-2.99,2.896-5.286,5.229-6.848,6.822c-1.561,1.597-2.393,2.448-2.393,2.448L548.97,107.401z"/>
			</g>
			<g>
				<path d="M539.876,147.812c-0.01,0-0.082-0.031-0.262-0.032c-0.179-0.009-0.456,0.025-0.793,0.159
					c-0.675,0.266-1.545,1.009-2.222,2.244c-0.717,1.207-1.272,2.854-1.672,4.78c-0.408,1.933-0.688,4.122-0.979,6.551
					c-0.256,2.404-0.61,5.009-0.892,7.763c-0.275,2.752-0.624,5.665-0.633,8.692c-0.003,3.006,0.343,6.209,1.716,9.035
					c0.711,1.374,1.681,2.665,3.001,3.405c1.3,0.775,2.841,0.958,4.342,0.725c0.399-0.059,0.834-0.082,1.205-0.169l1.028-0.312
					c0.346-0.064,0.659-0.29,0.983-0.433l0.481-0.237c0.157-0.081,0.283-0.213,0.427-0.313c0.267-0.227,0.588-0.38,0.812-0.652
					l0.699-0.765c0.375-0.594,0.792-1.144,1.041-1.825c0.33-0.62,0.474-1.358,0.701-2.033c0.113-0.734,0.318-1.426,0.354-2.177
					l0.104-1.101l0.03-1.113c0.038-0.736,0.002-1.479-0.029-2.216c-0.076-1.47-0.2-2.929-0.384-4.355
					c-0.072-0.713-0.2-1.418-0.305-2.116c-0.087-0.7-0.196-1.39-0.32-2.07c-0.123-0.698-0.218-1.327-0.362-2.006
					c-0.13-0.67-0.259-1.33-0.385-1.979c-0.258-1.274-0.507-2.506-0.746-3.688c-0.495-2.371-0.989-4.544-1.6-6.419
					c-0.597-1.877-1.288-3.468-2.059-4.646c-0.746-1.196-1.562-1.974-2.205-2.335c-0.651-0.352-1.057-0.325-1.049-0.356l0.002-0.006
					L539.876,147.812z M539.934,147.508l-0.004,0.009c-0.013,0.031,0.459-0.003,1.18,0.368c0.709,0.375,1.601,1.143,2.51,2.291
					c0.898,1.156,1.865,2.65,2.833,4.449c0.955,1.802,1.937,3.897,2.795,6.254c0.202,0.592,0.426,1.192,0.622,1.815
					c0.183,0.629,0.369,1.27,0.559,1.922c0.19,0.649,0.333,1.299,0.496,1.967c0.166,0.654,0.313,1.395,0.459,2.08
					c0.313,1.402,0.559,2.865,0.73,4.376c0.185,1.508,0.327,3.065,0.321,4.668c0.003,0.801,0.008,1.607-0.065,2.43
					c-0.03,0.41-0.045,0.82-0.09,1.233l-0.183,1.247c-0.087,0.831-0.362,1.67-0.547,2.507c-0.315,0.825-0.529,1.676-1.006,2.465
					c-0.377,0.818-0.964,1.553-1.537,2.276l-1.044,0.944c-0.341,0.32-0.784,0.514-1.172,0.769c-0.204,0.112-0.397,0.249-0.612,0.333
					l-0.651,0.234c-0.441,0.138-0.848,0.344-1.322,0.39l-1.372,0.217c-0.437,0.041-0.828,0.01-1.245,0.02
					c-1.747,0.049-3.613-0.378-5.051-1.422c-0.737-0.487-1.362-1.112-1.878-1.793c-0.549-0.663-0.955-1.406-1.339-2.147
					c-1.432-3.022-2.027-6.236-2.488-9.332c-0.435-3.109-0.561-6.154-0.396-9.017c0.185-2.864,0.563-5.542,1.171-7.979
					c0.561-2.416,1.324-4.623,2.096-6.506c0.384-0.946,0.81-1.807,1.195-2.599c0.433-0.775,0.845-1.473,1.26-2.08
					c0.842-1.207,1.793-1.961,2.552-2.249c0.757-0.304,1.271-0.112,1.249-0.125L539.934,147.508z"/>
			</g>
			<g>
				<path d="M553.692,126.303c0.009-0.007-0.059-0.09-0.09-0.337c-0.018-0.12-0.042-0.268-0.069-0.444
					c0.006-0.17,0.012-0.367,0.019-0.59c-0.022-0.454,0.145-0.973,0.25-1.606c0.145-0.622,0.411-1.302,0.659-2.089
					c0.319-0.752,0.72-1.563,1.109-2.479c0.445-0.882,0.993-1.795,1.534-2.811c0.53-1.027,1.264-1.987,1.949-3.079
					c0.362-0.535,0.734-1.082,1.115-1.644c0.388-0.54,0.798-1.078,1.243-1.631c1.72-2.229,3.787-4.446,6.09-6.676
					c2.306-2.226,4.931-4.37,7.71-6.489c2.798-2.097,5.672-4.268,8.813-6.203c0.789-0.479,1.602-0.932,2.465-1.326
					c0.866-0.383,1.773-0.751,2.857-0.78c0.53,0.001,1.181,0.101,1.668,0.549l0.185,0.156c0.009,0.002,0.107,0.127,0.077,0.09
					l0.025,0.035l0.052,0.069l0.207,0.278c0.132,0.201,0.288,0.335,0.4,0.59c0.531,0.956,0.855,1.881,1.097,2.822
					c0.493,1.889,0.671,3.816,0.668,5.729c0.025,0.96-0.083,1.908-0.139,2.862c-0.141,0.941-0.233,1.892-0.456,2.817
					c-0.762,3.713-2.218,7.311-4.584,10.278c-0.269,0.388-0.606,0.725-0.936,1.065c-0.339,0.346-0.631,0.671-1.02,1.016
					c-0.608,0.522-1.397,1.15-2.099,1.633c-1.422,1.02-2.876,1.87-4.317,2.631c-2.871,1.537-5.68,2.752-8.352,3.651
					c-2.67,0.901-5.176,1.537-7.406,2.023c-2.232,0.483-4.198,0.788-5.826,0.964c-1.628,0.163-2.943,0.116-3.815-0.159
					c-0.215-0.078-0.403-0.172-0.555-0.264c-0.137-0.123-0.27-0.21-0.34-0.315C553.757,126.416,553.692,126.303,553.692,126.303z
					 M553.974,126.197c0.026-0.036,0.084,0.47,0.904,0.708c0.79,0.232,2.069,0.227,3.635-0.091c1.572-0.288,3.442-0.865,5.521-1.69
					c2.084-0.804,4.37-1.876,6.831-3.073c2.447-1.223,5.11-2.506,7.796-4.05c1.335-0.78,2.682-1.613,3.986-2.513
					c0.672-0.463,1.208-0.881,1.895-1.461l0.807-0.783c0.279-0.266,0.567-0.525,0.802-0.847l0.753-0.921
					c0.242-0.317,0.445-0.672,0.674-1.007c0.475-0.66,0.817-1.422,1.223-2.151c0.701-1.521,1.335-3.121,1.75-4.812
					c0.452-1.678,0.772-3.419,0.934-5.18c0.194-1.758,0.225-3.557-0.032-5.289c-0.119-0.869-0.349-1.719-0.625-2.425
					c-0.042-0.185-0.222-0.389-0.325-0.583l-0.183-0.294l-0.046-0.074l-0.022-0.037c-0.046-0.062,0.035,0.041,0.02,0.026
					l-0.078-0.069c-0.174-0.222-0.5-0.313-0.87-0.348c-0.766-0.028-1.631,0.235-2.445,0.553c-0.816,0.341-1.604,0.771-2.379,1.219
					c-3.074,1.861-5.78,4.224-8.24,6.627c-2.457,2.419-4.711,4.871-6.893,7.141c-2.183,2.263-4.247,4.403-6.152,6.378
					c-0.479,0.497-0.947,0.982-1.405,1.458c-0.437,0.483-0.864,0.954-1.28,1.414c-0.425,0.46-0.838,0.908-1.239,1.343
					c-0.411,0.432-0.796,0.861-1.122,1.308c-0.675,0.878-1.35,1.688-1.883,2.489c-0.498,0.817-0.978,1.571-1.338,2.282
					c-0.289,0.735-0.635,1.376-0.789,1.972c-0.12,0.599-0.318,1.106-0.29,1.529c-0.009,0.209-0.018,0.395-0.024,0.555
					c0.021,0.15,0.039,0.276,0.054,0.378C553.906,126.082,553.985,126.199,553.974,126.197z"/>
			</g>
			<g>
				<path d="M513.783,50.581l-0.055-0.053c0.001,0-0.113-0.111-0.369-0.279c-0.251-0.178-0.661-0.397-1.228-0.589
					c-0.567-0.197-1.313-0.286-2.177-0.217c-0.872,0.075-1.815,0.465-2.794,1.006c-1.933,1.172-3.778,3.309-5.417,6
					c-0.421,0.685-0.825,1.349-1.221,2.12c-0.403,0.753-0.838,1.528-1.2,2.326c-0.778,1.576-1.507,3.304-2.213,5.103
					c-1.362,3.615-2.657,7.604-3.224,11.948c-0.134,1.084-0.292,2.185-0.31,3.306c-0.106,1.121-0.063,2.252-0.05,3.403
					c0.156,2.281,0.427,4.645,1.187,6.928l0.253,0.868l0.334,0.844c0.23,0.561,0.431,1.141,0.689,1.697
					c0.564,1.095,1.107,2.188,1.803,3.27c1.323,2.148,2.813,4.248,4.405,6.279c3.178,4.066,6.881,7.873,11.032,10.975
					c2.071,1.513,4.318,2.91,6.605,3.501c1.109,0.316,2.279,0.322,3.007-0.051l0.219-0.11c0.084-0.038,0.145-0.074,0.155-0.101
					c0.054-0.058,0.11-0.103,0.175-0.147c0.147-0.169,0.309-0.313,0.435-0.527c0.274-0.388,0.488-0.882,0.651-1.416
					c0.652-2.166,0.697-4.722,0.629-7.174c-0.091-2.477-0.333-4.947-0.627-7.376c-1.288-9.767-2.49-18.882-3.521-26.695
					c-0.552-3.889-1.128-7.456-1.794-10.588c-0.653-3.134-1.373-5.84-2.134-8.007c-0.737-2.175-1.501-3.822-2.146-4.856
					c-0.341-0.496-0.586-0.907-0.819-1.101C513.925,50.725,513.833,50.631,513.783,50.581z M513.952,50.328
					c0.049,0.047,0.159,0.152,0.334,0.32c0.265,0.215,0.522,0.625,0.89,1.136c0.689,1.052,1.477,2.703,2.384,4.838
					c0.88,2.148,1.879,4.785,2.901,7.859c1.01,3.076,2.069,6.582,2.981,10.471c0.951,3.893,1.576,8.184,2.254,12.64
					c0.354,2.238,0.708,4.542,1.017,6.911c0.319,2.368,0.644,4.793,0.857,7.284c0.228,2.488,0.405,5.035,0.426,7.648
					c0.002,1.308-0.034,2.633-0.165,3.982c-0.14,1.346-0.344,2.726-0.857,4.117c-0.256,0.693-0.59,1.397-1.098,2.053
					c-0.233,0.335-0.555,0.632-0.871,0.923c-0.199,0.148-0.411,0.29-0.622,0.422c-0.118,0.077-0.201,0.118-0.268,0.144l-0.224,0.1
					c-1.69,0.702-3.312,0.429-4.688-0.003c-2.761-0.962-4.941-2.638-6.995-4.372c-2.051-1.746-3.912-3.664-5.674-5.642
					c-1.772-1.968-3.452-3.996-5.055-6.055c-1.614-2.054-3.115-4.156-4.588-6.262c-0.738-1.024-1.371-2.176-2.063-3.255
					c-0.318-0.558-0.579-1.146-0.87-1.716l-0.425-0.861l-0.344-0.892c-1.897-4.74-2.418-9.831-1.913-14.491
					c0.501-4.675,1.918-8.922,3.647-12.572c0.408-0.926,0.878-1.798,1.355-2.638c0.45-0.851,0.966-1.654,1.449-2.439
					c0.475-0.8,0.981-1.511,1.463-2.219c0.462-0.708,0.998-1.411,1.498-2.044c2.009-2.585,4.127-4.587,6.215-5.724
					c1.066-0.525,2.091-0.839,3.016-0.916c0.922-0.059,1.716,0.052,2.316,0.271c0.601,0.215,1.03,0.455,1.298,0.65
					c0.275,0.188,0.396,0.312,0.397,0.312L513.952,50.328z"/>
			</g>
			<g>
				<path d="M465.242,148.212c0,0-0.434,0.243-1.153,0.86c-0.703,0.615-1.696,1.635-2.446,3.209
					c-0.357,0.787-0.677,1.705-0.728,2.736c-0.128,1.021,0.045,2.134,0.353,3.258c0.372,1.115,0.878,2.264,1.628,3.356
					c0.19,0.286,0.371,0.613,0.575,0.875c0.204,0.25,0.411,0.502,0.62,0.757c0.189,0.264,0.439,0.495,0.685,0.734
					c0.246,0.233,0.466,0.505,0.736,0.715c1.047,0.898,2.291,1.553,3.65,1.986c1.362,0.455,2.904,0.495,4.484,0.34
					c0.397-0.052,0.8-0.081,1.204-0.15c0.403-0.094,0.809-0.188,1.217-0.284c0.822-0.171,1.637-0.488,2.473-0.749
					c1.641-0.646,3.316-1.393,4.937-2.346c3.25-1.862,6.362-4.366,9.51-6.84c3.129-2.504,6.212-5.181,9.054-8.064
					c1.416-1.44,2.797-2.913,4.014-4.461c0.625-0.762,1.194-1.551,1.704-2.351c0.514-0.795,0.968-1.609,1.263-2.422
					c0.293-0.81,0.461-1.612,0.365-2.307c-0.054-0.345-0.125-0.676-0.286-0.98l-0.108-0.231c0.129,0.212,0.021,0.037,0.042,0.074
					l-0.025-0.038l-0.053-0.076c-0.03-0.04-0.082-0.125-0.095-0.128c-0.022,0.019,0.021,0.048-0.012,0.025
					c-0.047-0.021-0.067-0.054-0.125-0.079c-0.405-0.24-1.27-0.364-2.104-0.362c-0.853-0.005-1.751,0.082-2.645,0.212
					c-3.598,0.543-7.114,1.577-10.431,2.529c-3.315,0.991-6.429,2.049-9.338,2.947c-2.902,0.917-5.58,1.746-7.929,2.553
					c-2.353,0.796-4.386,1.548-6.023,2.246c-1.647,0.679-2.913,1.277-3.755,1.72c-0.848,0.439-1.245,0.727-1.245,0.727l-0.009,0.006
					L465.242,148.212z M465.101,147.948c0.093-0.067,0.507-0.36,1.244-0.759c0.841-0.464,2.084-1.119,3.67-1.946
					c1.592-0.823,3.523-1.823,5.739-2.969c2.227-1.132,4.742-2.418,7.555-3.678c2.808-1.271,5.931-2.462,9.301-3.569
					c1.682-0.565,3.432-1.094,5.258-1.542c1.824-0.454,3.711-0.875,5.712-1.095c1.002-0.111,2.03-0.183,3.118-0.142
					c0.542,0.018,1.106,0.073,1.695,0.195c0.584,0.121,1.214,0.309,1.859,0.712c0.158,0.092,0.318,0.23,0.473,0.351
					c0.159,0.131,0.357,0.357,0.509,0.548c0.068,0.09,0.076,0.115,0.117,0.175l0.165,0.27l0.195,0.444
					c0.265,0.591,0.396,1.246,0.453,1.885c0.097,1.297-0.237,2.495-0.684,3.538c-0.921,2.095-2.306,3.731-3.735,5.259
					c-1.452,1.515-3.015,2.873-4.597,4.193c-3.182,2.617-6.455,5.057-9.592,7.567c-1.568,1.254-3.128,2.491-4.621,3.773
					c-1.511,1.252-3.005,2.56-4.59,3.691c-1.559,1.173-3.219,2.179-4.925,3.059c-1.75,0.79-3.539,1.505-5.446,1.741
					c-1.876,0.242-3.835,0.231-5.608-0.394c-1.77-0.584-3.322-1.593-4.49-2.812c-0.307-0.29-0.545-0.631-0.814-0.938
					c-0.263-0.312-0.51-0.629-0.713-0.986c-0.21-0.344-0.418-0.684-0.623-1.02c-0.191-0.332-0.314-0.646-0.47-0.964
					c-0.643-1.325-1.02-2.695-1.246-3.986c-0.396-2.629,0.265-4.933,1.164-6.509c0.933-1.585,1.982-2.576,2.712-3.205
					c0.736-0.623,1.201-0.879,1.201-0.879L465.101,147.948z"/>
			</g>
			<g>
				<path d="M538.226,109.133c0,0-0.15-1.45-0.431-4.169c-0.29-2.718-0.719-6.703-1.391-11.757
					c-0.685-5.051-1.477-11.189-2.711-18.17c-1.258-6.97-2.757-14.833-5.139-23.173c-1.19-4.162-2.604-8.455-4.527-12.644
					c-0.979-2.081-2.072-4.141-3.396-6.043c-1.335-1.873-2.931-3.616-4.861-4.643c-0.943-0.514-2.027-0.837-3.032-0.888
					l-0.954-0.028c-0.315-0.007-0.654-0.036-0.909,0.018c-0.553,0.089-1.091,0.077-1.666,0.225
					c-2.316,0.447-4.569,1.515-6.636,2.949c-2.075,1.43-3.973,3.219-5.721,5.184c-1.75,1.964-3.37,4.1-4.887,6.339
					c-3.025,4.489-5.659,9.378-7.974,14.482c-1.168,2.549-2.246,5.159-3.247,7.813c-0.499,1.327-0.987,2.663-1.447,4.01
					c-0.22,0.664-0.478,1.373-0.646,2.003c-0.153,0.685-0.293,1.388-0.422,2.088c-1.014,5.615-1.49,11.387-1.311,17.149
					c0.243,5.749,1.177,11.527,3.291,16.841c2.099,5.3,5.55,10.045,10.158,13.208l0.852,0.604l0.895,0.535
					c0.624,0.38,1.249,0.751,1.852,1.019l0.91,0.447c0.308,0.141,0.636,0.252,0.952,0.38c0.319,0.119,0.634,0.259,0.957,0.363
					l0.975,0.279c0.645,0.222,1.31,0.269,1.96,0.413c0.653,0.035,1.312,0.141,1.95,0.082c1.278-0.039,2.538-0.31,3.548-0.885
					c0.986-0.558,1.761-1.462,1.761-2.223c0.105-0.729-0.528-1.421-1.543-1.891c-1.025-0.455-2.311-0.616-3.594-0.664
					c-0.655,0.027-1.308,0.02-1.969,0.089c-0.663,0.092-1.322,0.126-1.984,0.262c-2.65,0.434-5.266,1.244-7.811,2.171l-1.904,0.711
					l-1.873,0.792c-1.254,0.504-2.466,1.113-3.686,1.679c-9.722,4.757-19.015,9.86-26.375,16.262
					c-3.607,3.222-6.664,6.907-8.069,11.024c-0.679,2.052-0.958,4.182-0.774,6.279c0.179,2.098,0.729,4.148,1.488,6.099
					c1.61,3.895,3.586,7.525,6.371,10.075c2.757,2.595,6.021,4.371,9.294,5.368c3.273,1.031,6.539,1.323,9.526,1.18
					c2.992-0.162,5.709-0.775,8.08-1.566c4.755-1.635,7.99-4.086,10.021-5.852c1.014-0.898,1.76-1.629,2.229-2.151
					c0.48-0.514,0.729-0.779,0.729-0.779l0.23,0.191c0,0-0.232,0.283-0.683,0.832c-0.44,0.559-1.146,1.345-2.118,2.325
					c-1.961,1.914-5.141,4.593-9.99,6.555c-2.417,0.966-5.241,1.714-8.389,2.003c-3.142,0.271-6.617,0.098-10.177-0.874
					c-3.546-0.951-7.218-2.693-10.329-5.523c-0.777-0.703-1.521-1.465-2.216-2.29c-0.7-0.827-1.384-1.773-1.917-2.626
					c-1.164-1.875-2.188-3.772-3.088-5.884c-0.876-2.103-1.562-4.391-1.825-6.828c-0.272-2.434-0.007-5.005,0.744-7.443
					c0.751-2.447,2.041-4.706,3.56-6.765c1.527-2.061,3.306-3.93,5.211-5.675c1.913-1.74,3.971-3.331,6.096-4.868
					c2.141-1.514,4.371-2.934,6.657-4.304c4.57-2.736,9.396-5.249,14.386-7.575c1.268-0.568,2.52-1.176,3.831-1.685l1.953-0.796
					l2-0.718c2.681-0.935,5.445-1.757,8.36-2.199c2.893-0.41,5.99-0.694,9.174,0.645c0.39,0.214,0.789,0.363,1.154,0.682l0.55,0.437
					c0.171,0.171,0.328,0.372,0.487,0.563c0.338,0.355,0.537,0.883,0.736,1.354c0.126,0.521,0.232,1.05,0.162,1.577
					c-0.078,1.05-0.537,1.993-1.141,2.684c-0.582,0.739-1.322,1.233-2.068,1.657c-1.518,0.809-3.168,1.093-4.756,1.11
					c-0.805,0.046-1.579-0.086-2.364-0.156c-0.755-0.176-1.542-0.266-2.266-0.528l-1.103-0.345
					c-0.362-0.126-0.708-0.286-1.063-0.429c-0.351-0.151-0.707-0.284-1.054-0.451l-1.029-0.535
					c-0.712-0.348-1.324-0.734-1.932-1.123l-0.958-0.605l-0.911-0.676c-4.889-3.605-8.384-8.846-10.375-14.442
					c-2.039-5.612-2.795-11.551-2.876-17.396c-0.117-5.856,0.43-11.68,1.518-17.353c0.14-0.71,0.287-1.413,0.455-2.124
					c0.21-0.75,0.434-1.391,0.659-2.086c0.454-1.362,0.934-2.71,1.427-4.049c0.996-2.675,2.047-5.314,3.152-7.915
					c2.249-5.18,4.674-10.233,7.599-14.928c1.465-2.344,3.042-4.604,4.792-6.714c1.747-2.11,3.676-4.076,5.881-5.719
					c2.193-1.638,4.687-2.973,7.416-3.586c0.668-0.183,1.428-0.215,2.137-0.316c0.378-0.06,0.679-0.037,1-0.037l0.954,0.01
					c1.533,0.045,2.924,0.463,4.196,1.109c2.546,1.307,4.337,3.373,5.834,5.425c1.469,2.092,2.644,4.28,3.64,6.48
					c1.975,4.409,3.374,8.817,4.551,13.073c2.271,8.537,3.645,16.488,4.621,23.554c0.969,7.067,1.636,13.244,2.024,18.343
					c0.802,10.197,0.869,16.041,0.869,16.041L538.226,109.133z"/>
			</g>
		</g>
		<g>
			<g>
				<g>
					<path d="M542.988,104.63c3.25-7.278,4.06-15.901,3.89-23.759c-0.141-6.52-1.54-12.775-3.276-19.03
						c-1.55-5.583-3.262-11.227-2.926-17.086c0.525-9.148,9.077-20.574,18.897-15.163c5.363,2.955,11.011,11.264,7.377,17.354
						c-2.417,4.05-11.325,6.168-14.284,1.766c-1.076-1.601-0.926-3.759,0.002-5.377c1.157-2.018,3.44-2.185,5.441-1.495
						c1.223,0.421,1.743-1.511,0.531-1.929c-5.53-1.907-10.327,3.303-8.233,8.742c2.61,6.779,13.172,4.798,17.221,0.662
						c4.712-4.813,1.783-12.426-1.772-16.916c-4.117-5.197-11.248-8.327-17.394-4.751c-5.564,3.238-9.016,10.288-9.731,16.463
						c-0.823,7.117,1.903,14.338,3.716,21.095c3.235,12.058,3.963,26.885-1.186,38.415
						C540.74,104.787,542.464,105.806,542.988,104.63L542.988,104.63z"/>
				</g>
			</g>
			<g>
				<g>
					<path d="M546.88,106.113c4.159-2.778,6.11-9.505,7.523-13.9c1.995-6.206,3.071-12.67,4.981-18.905
						c1.419-4.634,3.234-9.682,6.947-12.991c3.014-2.685,8.306-2.993,11.347-0.213c2.601,2.377,2.752,6.518,1.842,9.675
						c-1.01,3.499-3.959,6.056-7.711,5.406c-2.408-0.418-4.134-1.936-4.076-4.458c0.048-2.061,1.811-3.971,3.888-2.989
						c1.159,0.548,2.175-1.176,1.01-1.727c-3.146-1.487-5.925,0.412-6.745,3.612c-0.984,3.843,1.895,6.694,5.393,7.489
						c7.252,1.65,11.395-6.21,10.642-12.4c-0.929-7.645-9.37-10.728-15.673-6.814c-3.638,2.259-5.66,6.514-7.204,10.33
						c-2.417,5.974-3.666,12.36-5.199,18.594c-1.219,4.954-2.817,9.962-5.444,14.366c-0.607,1.017-1.959,2.817-2.528,3.198
						C544.804,105.099,545.804,106.832,546.88,106.113L546.88,106.113z"/>
				</g>
			</g>
			<circle cx="573.188" cy="67.188" r="2.625"/>
			<circle cx="558.938" cy="40.938" r="2.875"/>
		</g>
		<g>
			<defs>
				<rect id="SVGID_00000101814101038021426430000003854885061752387490_" width="750" height="500"/>
			</defs>
			<clipPath id="SVGID_00000075146558175346442350000018362139245041288332_">
				<use xlink:href="#SVGID_00000101814101038021426430000003854885061752387490_"  style="overflow:visible;"/>
			</clipPath>
			<g style="clip-path:url(#SVGID_00000075146558175346442350000018362139245041288332_);">
				<g>
					<path d="M503.939,174.273c-12.685,14.373-23.39,31.616-30.152,49.528c-4.833,12.803-7.498,27.158-3.772,40.597
						c4.398,15.861,17.799,26.445,32.437,32.592c11.176,4.693,23.228,7.537,35.212,9.203c10.429,1.45,21.018,1.734,31.474,0.398
						c15.967-2.041,31.283-8.147,43.555-18.677c8.984-7.709,16.259-17.922,19.725-29.305c2.147-7.057,3.324-16.534-2.518-22.173
						c-11.35-10.956-29.391-4.693-39.186,4.996c-12.636,12.499-16.466,32.319-13.456,49.375c2.49,14.112,10.704,26.882,23.444,33.75
						c17.707,9.546,39.465,6.123,57.669,0.024c14.08-4.717,27.476-11.604,40.378-18.89c10.142-5.728,19.946-12.086,29.069-19.337
						c9.83-7.812,19.621-17.16,25.188-28.616c1.325-2.729,2.749-5.967,2.829-9.073c0.05-1.936-2.95-1.931-3,0
						c-0.014,0.542-0.04,0.461-0.048,0.509c-0.131,0.845-0.342,1.677-0.584,2.497c-0.955,3.238-2.539,6.248-4.321,9.122
						c-8.278,13.353-21.434,23.597-34.276,32.243c-11.654,7.847-24.059,14.552-36.693,20.667
						c-12.253,5.93-25.222,10.717-38.711,12.836c-16.946,2.663-35.336-0.178-47.276-13.435c-9.592-10.651-12.74-25.791-11.296-39.74
						c1.846-17.813,13.386-37.962,33.048-39.591c5.796-0.48,12.957,1.382,16.412,6.202c1.867,2.605,2.143,6.106,2.008,9.274
						c-0.44,10.358-5.994,20.479-12.444,28.31c-9.528,11.568-22.764,19.443-37.102,23.494c-21.146,5.974-43.802,3.48-64.693-2.279
						c-16.944-4.671-34.666-13.271-42.177-30.165c-5.683-12.781-3.552-27.548,0.716-40.39c4.227-12.716,10.908-24.59,18.399-35.65
						c3.775-5.575,7.791-11.061,12.23-16.132c0.012-0.014,0.025-0.029,0.037-0.043C507.336,174.95,505.222,172.82,503.939,174.273
						L503.939,174.273z"/>
				</g>
			</g>
		</g>
	</g>
</g>
</svg>
